<?xml version="1.0" standalone="no"?>
<!DOCTYPE svg PUBLIC "-//W3C//DTD SVG 1.1//EN" "http://www.w3.org/Graphics/SVG/1.1/DTD/svg11.dtd" >
<svg>
<metadata>
Created by FontForge 20090622 at Sun Oct 16 13:32:28 2016
 By deploy user
Digitized data copyright &#194;&#169; 1997 The Monotype Corporation, Inc. All rights reserved. Gill Sans&#194;&#174; is a trademark of The Monotype Corporation, Inc. which may be registered in certain jurisdictions.
</metadata>
<defs>
<font id="GillSansMT-UltraBold" horiz-adv-x="1749" >
  <font-face 
    font-family="Gill Sans MT Ultra Bold"
    font-weight="400"
    font-stretch="normal"
    units-per-em="2048"
    panose-1="2 11 10 2 2 1 4 2 2 3"
    ascent="1638"
    descent="-410"
    x-height="1204"
    cap-height="1526"
    bbox="-457 -516 3148 2036"
    underline-thickness="102"
    underline-position="-154"
    unicode-range="U+0020-U+F002"
  />
<missing-glyph horiz-adv-x="2048" 
d="M256 0v1536h1536v-1536h-1536zM384 128h1280v1280h-1280v-1280z" />
    <glyph glyph-name=".notdef" horiz-adv-x="2048" 
d="M256 0v1536h1536v-1536h-1536zM384 128h1280v1280h-1280v-1280z" />
    <glyph glyph-name=".null" horiz-adv-x="0" 
 />
    <glyph glyph-name="nonmarkingreturn" horiz-adv-x="682" 
 />
    <glyph glyph-name="space" unicode=" " horiz-adv-x="682" 
 />
    <glyph glyph-name="exclam" unicode="!" horiz-adv-x="831" 
d="M336 438q-258 431 -258 697q0 181 96 298t244 117q143 0 238.5 -114t95.5 -289q0 -299 -260 -709q76 -29 118.5 -89t42.5 -136q0 -98 -69.5 -168t-167.5 -70t-169 70t-71 168q0 75 42 135.5t118 89.5z" />
    <glyph glyph-name="quotedbl" unicode="&#x22;" horiz-adv-x="1024" 
d="M569 1526h406v-242l-64 -297h-278l-64 297v242zM49 1526h406v-242l-64 -297h-278l-64 297v242z" />
    <glyph glyph-name="numbersign" unicode="#" horiz-adv-x="1366" 
d="M471 309l-74 -350h-276l74 350h-129v277h186l45 217h-231v276h288l74 351h277l-74 -351h266l74 351h276l-73 -351h129v-276h-187l-45 -217h232v-277h-289l-74 -350h-276l73 350h-266zM528 586h267l45 217h-267z" />
    <glyph glyph-name="dollar" unicode="$" horiz-adv-x="1556" 
d="M1008 879q222 -70 333 -178.5t111 -270.5q0 -207 -158.5 -331t-427.5 -124q-272 0 -520 111l-94 -111h-264l563 676q-236 82 -342.5 180t-106.5 265q0 208 167.5 331t408.5 123q138 0 282.5 -32.5t237.5 -87.5l100 120h269zM817 969l174 213q-61 53 -137 53
q-59 0 -99 -38.5t-40 -94.5q0 -75 102 -133zM752 571l-187 -221q74 -59 144 -59q56 0 98.5 42.5t42.5 98.5q0 77 -98 139z" />
    <glyph glyph-name="percent" unicode="%" horiz-adv-x="2198" 
d="M520 1550q200 0 335.5 -119t135.5 -292q0 -174 -135.5 -292t-335.5 -118q-199 0 -334 118.5t-135 291.5q0 175 135 293t334 118zM520 1243q-40 0 -66 -23.5t-26 -58.5q0 -37 26 -60.5t66 -23.5q42 0 68 24t26 60t-26.5 59t-67.5 23zM588 -25l790 1575h226l-789 -1575
h-227zM1675 807q200 0 335.5 -119t135.5 -293q0 -172 -135.5 -290.5t-335.5 -118.5q-199 0 -334 118.5t-135 290.5q0 174 135 293t334 119zM1675 500q-40 0 -66 -23.5t-26 -58.5q0 -37 26 -60.5t66 -23.5q42 0 68 23.5t26 60.5q0 35 -26.5 58.5t-67.5 23.5z" />
    <glyph glyph-name="ampersand" unicode="&#x26;" horiz-adv-x="1921" 
d="M1360 874h387q-144 -224 -311 -391l473 -483h-690l-154 156q-114 -87 -254.5 -134t-275.5 -47q-203 0 -322 101.5t-119 259.5q0 284 375 444q-154 161 -154 326q0 190 150 317t377 127q203 0 332 -102t129 -262q0 -200 -211 -352l145 -148q67 71 123 188zM944 967
q133 39 133 141q0 46 -31.5 75t-80.5 29q-48 0 -81.5 -31t-33.5 -75q0 -67 94 -139zM872 354l-167 168q-52 -31 -75.5 -58t-23.5 -69q0 -46 33 -76t84 -30q66 0 149 65z" />
    <glyph glyph-name="quotesingle" unicode="'" horiz-adv-x="575" 
d="M84 1526h405v-242l-63 -297h-279l-63 297v242z" />
    <glyph glyph-name="parenleft" unicode="(" horiz-adv-x="1153" 
d="M725 1550h405q-260 -262 -364 -474.5t-104 -469.5q0 -260 113 -486.5t360 -457.5h-410q-304 222 -445 447t-141 497t143 499.5t443 444.5z" />
    <glyph glyph-name="parenright" unicode=")" horiz-adv-x="1153" 
d="M18 1550h414q295 -219 438.5 -448t143.5 -496q0 -265 -142 -493t-444 -451h-410q244 232 359 453.5t115 490.5q0 257 -114 484t-360 460z" />
    <glyph glyph-name="asterisk" unicode="*" horiz-adv-x="1473" 
d="M1399 774q-42 -268 -238 -418l-276 271l92 -375q-121 -45 -242 -45q-118 0 -239 45l94 377l-281 -273q-194 152 -235 418l370 105l-370 104q38 252 235 418l279 -275l-92 379q104 45 239 45q138 0 242 -45l-92 -379l276 275q200 -165 238 -418l-373 -104z" />
    <glyph glyph-name="plus" unicode="+" horiz-adv-x="1366" 
d="M109 856h411v412h324v-412h411v-324h-411v-411h-324v411h-411v324z" />
    <glyph glyph-name="comma" unicode="," horiz-adv-x="831" 
d="M215 -289l-18 13q140 86 157 256q-266 79 -266 319q0 147 98 248.5t240 101.5q144 0 237 -101.5t93 -260.5q0 -200 -154.5 -368t-386.5 -208z" />
    <glyph glyph-name="hyphen" unicode="-" horiz-adv-x="854" 
d="M74 410v385h704v-385h-704z" />
    <glyph glyph-name="period" unicode="." horiz-adv-x="831" 
d="M90 301q0 135 95.5 230.5t230.5 95.5q134 0 229.5 -95.5t95.5 -230.5q0 -134 -95.5 -230t-229.5 -96q-135 0 -230.5 96t-95.5 230z" />
    <glyph glyph-name="slash" unicode="/" horiz-adv-x="575" 
d="M313 1526h328l-379 -1704h-328z" />
    <glyph glyph-name="zero" unicode="0" 
d="M874 1550q331 0 557 -227t226 -559q0 -333 -226 -561t-557 -228q-330 0 -556 228t-226 561q0 332 226 559t556 227zM874 645q68 0 112 45.5t44 114.5t-44 114.5t-112 45.5q-66 0 -110.5 -46t-44.5 -114q0 -69 44.5 -114.5t110.5 -45.5z" />
    <glyph glyph-name="one" unicode="1" 
d="M1214 0h-679v1354l679 196v-1550z" />
    <glyph glyph-name="two" unicode="2" 
d="M1470 272v-272h-1226q249 309 372 489.5t123 296.5q0 66 -43 111t-106 45q-82 0 -159 -65t-179 -209l12 692q140 99 260.5 144.5t268.5 45.5q276 0 456.5 -165.5t180.5 -458.5q0 -323 -250 -654h290z" />
    <glyph glyph-name="three" unicode="3" 
d="M342 1526h590q276 0 419.5 -102t143.5 -298q0 -122 -62.5 -202t-195.5 -140q272 -100 272 -368q0 -199 -140 -307.5t-431 -108.5h-596v530q127 -157 311 -157q83 0 132 38.5t49 104.5q0 83 -63.5 132.5t-170.5 49.5q-108 0 -258 -55v270q105 -28 227 -28q116 0 183 46
t67 124q0 68 -50 108.5t-134 40.5q-88 0 -166 -42.5t-127 -121.5v486z" />
    <glyph glyph-name="four" unicode="4" 
d="M1386 0h-679v512h-609v326l609 688h679v-666h248v-348h-248v-512zM707 860v371l-322 -371h322z" />
    <glyph glyph-name="five" unicode="5" 
d="M1583 1526v-273h-539l-53 -206q256 -17 391.5 -150.5t135.5 -349.5q0 -250 -183.5 -411t-470.5 -161q-247 0 -447 106t-247 292l12 14q163 -111 346 -111q138 0 224 60.5t86 155.5q0 194 -328 194q-182 0 -291 -76l-16 13l225 903h1155z" />
    <glyph glyph-name="six" unicode="6" 
d="M1630 1526v-27q-292 -90 -508 -317q260 -39 401.5 -189.5t141.5 -374.5q0 -282 -220.5 -462.5t-572.5 -180.5q-350 0 -566 185t-216 481q0 248 154.5 477t449.5 408h936zM866 541q60 0 99 38t39 97q0 61 -38.5 101t-97.5 40q-56 0 -97.5 -41.5t-41.5 -99.5
q0 -57 39.5 -96t97.5 -39z" />
    <glyph glyph-name="seven" unicode="7" 
d="M961 0h-740l539 1253h-451v273h1307z" />
    <glyph glyph-name="eight" unicode="8" 
d="M1280 770v-4q356 -78 356 -377q0 -214 -182.5 -314t-581.5 -100q-383 0 -570 104t-187 318q0 291 348 369v4q-336 78 -336 350q0 211 178 320.5t529 109.5q411 0 599.5 -101t188.5 -325q0 -278 -342 -354zM1001 1110q0 52 -37 88.5t-90 36.5q-52 0 -89 -36.5t-37 -88.5
t37 -89.5t89 -37.5t89.5 37.5t37.5 89.5zM879 297q52 0 88.5 36.5t36.5 88.5q0 57 -37.5 95t-92.5 38t-92 -37t-37 -92t38.5 -92t95.5 -37z" />
    <glyph glyph-name="nine" unicode="9" 
d="M121 0v27q296 92 508 317q-260 39 -401.5 189.5t-141.5 373.5q0 282 221 462.5t572 180.5q350 0 566 -184.5t216 -480.5q0 -247 -154 -476.5t-450 -408.5h-936zM885 985q-59 0 -98 -38.5t-39 -96.5q0 -61 38 -101t97 -40q57 0 98 41.5t41 99.5q0 57 -39.5 96t-97.5 39z
" />
    <glyph glyph-name="colon" unicode=":" horiz-adv-x="831" 
d="M90 1004q0 125 89.5 196.5t236.5 71.5t236 -71.5t89 -196.5q0 -126 -89 -197.5t-236 -71.5t-236.5 71.5t-89.5 197.5zM90 244q0 125 89.5 196.5t236.5 71.5t236 -71.5t89 -196.5q0 -130 -91.5 -199.5t-233.5 -69.5q-147 0 -236.5 71.5t-89.5 197.5z" />
    <glyph glyph-name="semicolon" unicode=";" horiz-adv-x="831" 
d="M90 1036q0 130 91.5 199.5t234.5 69.5q147 0 236 -71.5t89 -197.5q0 -125 -89 -196.5t-236 -71.5t-236.5 71.5t-89.5 196.5zM215 -289l-18 13q140 86 157 256q-266 81 -266 294q0 137 97 219t241 82q147 0 237.5 -83t90.5 -226q0 -188 -155 -351.5t-384 -203.5z" />
    <glyph glyph-name="less" unicode="&#x3c;" horiz-adv-x="1366" 
d="M109 840l1148 475v-350l-702 -273l702 -272v-350l-1148 475v295z" />
    <glyph glyph-name="equal" unicode="=" horiz-adv-x="1366" 
d="M109 1102h1148v-324h-1148v324zM109 610h1148v-323h-1148v323z" />
    <glyph glyph-name="greater" unicode="&#x3e;" horiz-adv-x="1366" 
d="M1257 840v-295l-1148 -475v350l702 272l-702 273v350z" />
    <glyph glyph-name="question" unicode="?" horiz-adv-x="1174" 
d="M12 928q64 269 232.5 445.5t384.5 176.5q183 0 307.5 -125.5t124.5 -310.5q0 -174 -101 -330t-311 -327q170 -64 170 -234q0 -104 -72 -176t-176 -72q-105 0 -178.5 71t-73.5 173q0 49 21 102.5t102 151.5q87 103 109 163t22 116q0 121 -72 195.5t-192 74.5
q-114 0 -297 -94z" />
    <glyph glyph-name="at" unicode="@" horiz-adv-x="1516" 
d="M1157 1186l-125 -791q-3 -22 -3 -36q0 -42 38 -42q87 0 194 132t107 362q0 261 -151 415t-406 154q-293 0 -478.5 -202.5t-185.5 -526.5q0 -314 179.5 -506t470.5 -192q284 0 518 186h225q-126 -161 -329.5 -257.5t-409.5 -96.5q-351 0 -588.5 248.5t-237.5 617.5
q0 366 221 632.5t615 266.5q337 0 533 -210.5t196 -528.5q0 -192 -82 -342.5t-215.5 -234.5t-241.5 -84q-121 0 -155 118q-64 -62 -118 -90t-122 -28q-143 0 -234 119t-91 311q0 247 124.5 444t303.5 197q75 0 128.5 -35.5t106.5 -112.5l19 113h194zM743 1049
q-105 0 -173 -153t-68 -372q0 -102 35.5 -159.5t101.5 -57.5q53 0 108 51t91 204t36 300q0 187 -131 187z" />
    <glyph glyph-name="A" unicode="A" horiz-adv-x="2028" 
d="M678 0h-676l530 1526h963l530 -1526h-675l-88 258h-496zM889 618h250l-125 379z" />
    <glyph glyph-name="B" unicode="B" horiz-adv-x="1792" 
d="M147 1526h955q293 0 442.5 -114.5t149.5 -311.5q0 -215 -199 -328q118 -62 179 -144.5t61 -205.5q0 -192 -137.5 -307t-385.5 -115h-1065v1526zM823 1219v-297h17q110 0 156 33.5t46 115.5q0 148 -178 148h-41zM823 666v-330h21q116 0 165.5 35.5t49.5 122.5
q0 172 -189 172h-47z" />
    <glyph glyph-name="C" unicode="C" horiz-adv-x="1599" 
d="M1571 1389l-283 -539q-124 43 -274 43q-215 0 -215 -117q0 -56 60 -87.5t171 -31.5q150 0 258 54l283 -578q-120 -72 -290 -115t-325 -43q-389 0 -619.5 224.5t-230.5 552.5q0 347 240 572.5t610 225.5q160 0 330.5 -43.5t284.5 -117.5z" />
    <glyph glyph-name="D" unicode="D" horiz-adv-x="1812" 
d="M152 1526h751q406 0 627 -224.5t221 -541.5q0 -202 -100.5 -381.5t-294.5 -279t-469 -99.5h-735v1526zM827 942v-358h17q122 0 176.5 42.5t54.5 139.5q0 176 -205 176h-43z" />
    <glyph glyph-name="E" unicode="E" horiz-adv-x="1473" 
d="M1417 383v-383h-1267v1526h1267v-383h-592v-189h412v-383h-412v-188h592z" />
    <glyph glyph-name="F" unicode="F" horiz-adv-x="1409" 
d="M150 0v1526h1255v-383h-580v-277h430v-383h-430v-483h-675z" />
    <glyph glyph-name="G" unicode="G" 
d="M1692 1346l-326 -459q-204 98 -377 98q-115 0 -184.5 -59.5t-69.5 -157.5q0 -186 244 -186v239h676v-823q-410 -23 -555 -23q-560 0 -778 238t-218 555q0 218 101.5 400t293 282t453.5 100q184 0 381 -53.5t359 -150.5z" />
    <glyph glyph-name="H" unicode="H" horiz-adv-x="1985" 
d="M819 0h-676v1526h676v-559h344v559h676v-1526h-676v567h-344v-567z" />
    <glyph glyph-name="I" unicode="I" horiz-adv-x="981" 
d="M154 0v1526h675v-1526h-675z" />
    <glyph glyph-name="J" unicode="J" horiz-adv-x="1153" 
d="M360 1526h676v-905q0 -294 -31 -403.5t-142.5 -176t-268.5 -66.5q-208 0 -368.5 102t-215.5 277q56 -12 146 -12q130 0 167 39.5t37 159.5v985z" />
    <glyph glyph-name="K" unicode="K" horiz-adv-x="1942" 
d="M829 1526v-510q173 13 263 147t90 363h688q0 -279 -73 -460t-228 -300q312 -238 344 -766h-729q-26 546 -355 557v-557h-675v1526h675z" />
    <glyph glyph-name="L" unicode="L" horiz-adv-x="1430" 
d="M147 0v1526h676v-1143h592v-383h-1268z" />
    <glyph glyph-name="M" unicode="M" horiz-adv-x="2154" 
d="M145 0v1526h656l276 -318l277 318h655v-1526h-676v764l-256 -295l-256 295v-764h-676z" />
    <glyph glyph-name="N" unicode="N" horiz-adv-x="1812" 
d="M1665 -12h-512l-328 481v-469h-675v1526h483l356 -516v516h676v-1538z" />
    <glyph glyph-name="O" unicode="O" 
d="M874 -25q-327 0 -554.5 229.5t-227.5 559.5q0 329 227.5 557.5t554.5 228.5q328 0 555.5 -228.5t227.5 -557.5q0 -330 -227.5 -559.5t-555.5 -229.5zM874 965q-65 0 -108 -45.5t-43 -114.5t43 -114.5t108 -45.5q66 0 109 45.5t43 114.5t-43 114.5t-109 45.5z" />
    <glyph glyph-name="P" unicode="P" horiz-adv-x="1706" 
d="M154 1526h925q293 0 450 -148.5t157 -367.5q0 -214 -149 -364t-359 -150q-175 0 -349 133v-629h-675v1526zM829 1196v-332q30 -8 56 -8q76 0 123 48t47 126q0 77 -40 121.5t-114 44.5h-72z" />
    <glyph glyph-name="Q" unicode="Q" 
d="M1530 330l256 -330h-510l-45 59q-170 -84 -357 -84q-327 0 -554.5 229.5t-227.5 559.5q0 329 227.5 557.5t554.5 228.5q328 0 555.5 -228.5t227.5 -557.5q0 -239 -127 -434zM874 965q-65 0 -108 -45.5t-43 -114.5t43 -114.5t108 -45.5q66 0 109 45.5t43 114.5t-43 114.5
t-109 45.5z" />
    <glyph glyph-name="R" unicode="R" horiz-adv-x="1835" 
d="M150 1526h997q259 0 407 -130.5t148 -326.5q0 -216 -174 -338q247 -282 295 -731h-701q-19 289 -86.5 427t-210.5 138v-565h-675v1526zM825 1212v-294h19q182 0 182 143q0 60 -37 105.5t-123 45.5h-41z" />
    <glyph glyph-name="S" unicode="S" horiz-adv-x="1493" 
d="M1430 1448l-168 -481q-165 223 -379 223q-119 0 -119 -90q0 -28 37.5 -57t196.5 -91q175 -69 269.5 -125.5t141.5 -144.5t47 -205q0 -245 -186 -373.5t-547 -128.5q-405 0 -698 115l165 510q72 -112 178.5 -178t204.5 -66q48 0 80.5 25t32.5 61q0 34 -31.5 65t-166.5 86
q-122 49 -202 95.5t-139 132.5t-59 217q0 254 185 383t546 129q330 0 611 -102z" />
    <glyph glyph-name="T" unicode="T" horiz-adv-x="1430" 
d="M37 850v676h1356v-676h-340v-850h-676v850h-340z" />
    <glyph glyph-name="U" unicode="U" horiz-adv-x="1772" 
d="M1645 1526v-692q0 -453 -231.5 -656t-528.5 -203q-215 0 -408.5 112t-271.5 295.5t-78 481.5v662h676v-707q0 -114 20 -144t60 -30q56 0 71 54.5t15 183.5v643h676z" />
    <glyph glyph-name="V" unicode="V" horiz-adv-x="1729" 
d="M1710 1526l-518 -1526h-655l-519 1526h674l172 -514l172 514h674z" />
    <glyph glyph-name="W" unicode="W" horiz-adv-x="2517" 
d="M1036 0h-497l-539 1526h659l177 -498l186 498h469l195 -498l167 498h660l-514 -1526h-498l-241 604z" />
    <glyph glyph-name="X" unicode="X" horiz-adv-x="1985" 
d="M614 772l-596 754h738l225 -281l215 281h733l-577 -750l614 -776h-739l-242 303l-233 -303h-734z" />
    <glyph glyph-name="Y" unicode="Y" horiz-adv-x="1855" 
d="M1266 0h-676v666l-582 860h684l236 -346l235 346h684l-581 -860v-666z" />
    <glyph glyph-name="Z" unicode="Z" horiz-adv-x="1686" 
d="M1636 383v-383h-1607l702 1143h-645v383h1585l-702 -1143h667z" />
    <glyph glyph-name="bracketleft" unicode="[" horiz-adv-x="1087" 
d="M1057 31v-338h-910v1833h910v-338h-291v-1157h291z" />
    <glyph glyph-name="backslash" unicode="\" horiz-adv-x="575" 
d="M262 1526l379 -1704h-328l-379 1704h328z" />
    <glyph glyph-name="bracketright" unicode="]" horiz-adv-x="1087" 
d="M31 31h291v1157h-291v338h909v-1833h-909v338z" />
    <glyph glyph-name="asciicircum" unicode="^" horiz-adv-x="1343" 
d="M530 1526h279l410 -813h-355l-194 491l-193 -491h-354z" />
    <glyph glyph-name="underscore" unicode="_" horiz-adv-x="1024" 
d="M-12 -154h1048v-102h-1048v102z" />
    <glyph glyph-name="grave" unicode="`" horiz-adv-x="682" 
d="M530 1282h-206l-342 268h411z" />
    <glyph glyph-name="a" unicode="a" horiz-adv-x="1450" 
d="M127 709v362q262 143 594 143q316 0 466 -135t150 -413v-666h-618v90q-137 -100 -301 -100q-138 0 -230 89.5t-92 225.5q0 155 114 252.5t298 97.5q108 0 211 -28q0 84 -64.5 131t-179.5 47q-170 0 -348 -96zM719 266v168q-56 19 -101 19q-56 0 -90 -29t-34 -76
q0 -49 36.5 -82t92.5 -33q57 0 96 33z" />
    <glyph glyph-name="b" unicode="b" horiz-adv-x="1622" 
d="M729 1526v-359q117 47 234 47q255 0 424 -170t169 -428q0 -260 -177 -438t-498 -178h-770v1526h618zM729 438h14q78 0 121.5 8.5t71 42t27.5 105.5q0 67 -36 106t-98 39q-49 0 -100 -28v-273z" />
    <glyph glyph-name="c" unicode="c" horiz-adv-x="1343" 
d="M1233 1157v-528q-184 88 -338 88q-89 0 -138.5 -28.5t-49.5 -78.5q0 -116 215 -116q184 0 311 63v-522q-181 -53 -387 -53q-362 0 -560 174t-198 442t189 449.5t507 181.5q221 0 449 -72z" />
    <glyph glyph-name="d" unicode="d" horiz-adv-x="1642" 
d="M1526 1526v-1526h-735q-337 0 -523 174t-186 438q0 257 169.5 429.5t422.5 172.5q140 0 233 -43v355h619zM907 438v271q-46 30 -104 30q-55 0 -91 -43.5t-36 -109.5q0 -77 43.5 -112.5t138.5 -35.5h49z" />
    <glyph glyph-name="e" unicode="e" horiz-adv-x="1430" 
d="M1354 459v-211q-203 -266 -584 -266q-314 0 -505 174.5t-191 459.5q0 271 175.5 442t455.5 171q143 0 265 -48t211 -141t131 -216t42 -300h-631q34 -92 114 -144t183 -52q208 0 334 131zM686 735h291q-4 90 -44.5 140.5t-105.5 50.5q-57 0 -99 -48.5t-42 -142.5z" />
    <glyph glyph-name="f" unicode="f" horiz-adv-x="1153" 
d="M1145 840v-254h-350v-586h-619v586h-133v254h133q0 335 176.5 522.5t485.5 187.5q129 0 307 -45v-606q-90 109 -195 109q-73 0 -114 -46t-41 -122h350z" />
    <glyph glyph-name="g" unicode="g" horiz-adv-x="1556" 
d="M1448 1202v-944q0 -309 -157.5 -452.5t-487.5 -143.5q-430 0 -713 174v547q221 -215 492 -215q250 0 250 154q0 15 -3 32q-103 -65 -254 -65q-224 0 -356.5 124t-132.5 332q0 137 56.5 235.5t132 143.5t167.5 61.5t312 16.5h694zM829 864h-14q-207 0 -207 -151
q0 -62 37 -98.5t98 -36.5q54 0 86 26v260z" />
    <glyph glyph-name="h" unicode="h" horiz-adv-x="1642" 
d="M725 1526v-479q143 167 365 167q205 0 323.5 -120t118.5 -334v-760h-584v696q0 152 -117 152q-53 0 -106 -47v-801h-619v1526h619z" />
    <glyph glyph-name="i" unicode="i" horiz-adv-x="854" 
d="M559 1200q-72 0 -124 52t-52 124t52 123t124 51t123 -51t51 -123t-51 -124t-123 -52zM737 1204v-1204h-618v1204q122 -69 317 -69q181 0 301 69z" />
    <glyph glyph-name="j" unicode="j" horiz-adv-x="1024" 
d="M696 1200q-72 0 -124 52t-52 124t52 123t124 51t123 -51t51 -123t-51 -124t-123 -52zM874 1204v-862q0 -336 -164.5 -508t-439.5 -172q-142 0 -252 53v459q58 -18 101 -18q73 0 105 44.5t32 161.5v842q176 -69 319 -69q159 0 299 69z" />
    <glyph glyph-name="k" unicode="k" horiz-adv-x="1599" 
d="M729 1526v-721q228 85 234 399h612q-17 -185 -74 -299t-180 -203q72 -56 122 -125.5t81.5 -158t41 -178t9.5 -240.5h-612q0 278 -56.5 411t-177.5 181v-592h-618v1526h618z" />
    <glyph glyph-name="l" unicode="l" horiz-adv-x="854" 
d="M735 0h-618v1526h618v-1526z" />
    <glyph glyph-name="m" unicode="m" horiz-adv-x="2454" 
d="M729 1204v-151q150 161 371 161q263 0 389 -208q103 108 206.5 158t233.5 50q196 0 309 -120t113 -338v-756h-584v719q0 64 -31.5 99.5t-82.5 35.5q-57 0 -113 -39v-815h-584v719q0 63 -30.5 99t-83.5 36q-55 0 -113 -41v-813h-618v1204h618z" />
    <glyph glyph-name="n" unicode="n" horiz-adv-x="1642" 
d="M731 1204v-151q156 161 373 161q211 0 323.5 -117.5t112.5 -348.5v-748h-584v702q0 150 -114 150q-55 0 -111 -39v-813h-618v1204h618z" />
    <glyph glyph-name="o" unicode="o" horiz-adv-x="1473" 
d="M735 -18q-286 0 -471.5 172.5t-185.5 449.5t183 451t474 174q293 0 476.5 -174t183.5 -451q0 -276 -183.5 -449t-476.5 -173zM735 754q-60 0 -97.5 -38.5t-37.5 -99.5t37.5 -99t97.5 -38q61 0 99 38t38 99q0 62 -38 100t-99 38z" />
    <glyph glyph-name="p" unicode="p" horiz-adv-x="1642" 
d="M739 1204v-92q139 102 297 102q226 0 377.5 -169t151.5 -424q0 -275 -162.5 -453t-413.5 -178q-126 0 -250 53v-381h-618v1542h618zM739 674v-217q54 -29 107 -29q55 0 90 41t35 109q0 67 -35 110t-90 43q-62 0 -107 -57z" />
    <glyph glyph-name="q" unicode="q" horiz-adv-x="1642" 
d="M1526 -338h-619v358q-93 -45 -233 -45q-255 0 -423.5 172.5t-168.5 434.5q0 271 184.5 446.5t507.5 175.5h752v-1542zM907 479v271h-59q-172 0 -172 -150q0 -66 37 -110t92 -44q58 0 102 33z" />
    <glyph glyph-name="r" unicode="r" horiz-adv-x="1366" 
d="M733 940q118 274 342 274q125 0 206 -82t81 -208q0 -132 -79.5 -213.5t-207.5 -81.5q-146 0 -250 110q-92 -78 -92 -290v-449h-618v1204h618v-264z" />
    <glyph glyph-name="s" unicode="s" horiz-adv-x="1260" 
d="M12 117l138 338q64 -86 154 -134.5t177 -48.5q54 0 86.5 24t32.5 62q0 37 -27.5 64.5t-145.5 61.5q-119 34 -195 74.5t-126.5 119.5t-50.5 172q0 180 154.5 279.5t433.5 99.5q314 0 537 -103l-148 -307q-146 131 -282 131q-45 0 -73 -20t-28 -51q0 -37 28.5 -64
t151.5 -58q125 -31 206.5 -71t130 -120t48.5 -183q0 -186 -150.5 -293.5t-389.5 -107.5q-324 0 -662 135z" />
    <glyph glyph-name="t" unicode="t" horiz-adv-x="1153" 
d="M1083 1204v-338h-258v-258q0 -131 117 -131q86 0 148 86v-477q-146 -96 -355 -96q-223 0 -375.5 133t-152.5 366v377h-252l870 682v-344h258z" />
    <glyph glyph-name="u" unicode="u" horiz-adv-x="1642" 
d="M1518 1204v-1204h-592v211h-4q-91 -115 -186 -168t-226 -53q-189 0 -304.5 112t-115.5 314v788h584v-649q0 -164 112 -164q75 0 113 64v749h619z" />
    <glyph glyph-name="v" unicode="v" horiz-adv-x="1493" 
d="M-4 1204h618l134 -307l131 307h618l-522 -1204h-457z" />
    <glyph glyph-name="w" unicode="w" horiz-adv-x="2028" 
d="M2 1204h633l119 -258l108 258h287l113 -258l122 258h641l-534 -1204h-344l-143 330l-144 -330h-344z" />
    <glyph glyph-name="x" unicode="x" 
d="M1729 0h-713l-168 238l-168 -238h-662l474 612l-474 592h711l168 -233l162 233h670l-474 -610z" />
    <glyph glyph-name="y" unicode="y" horiz-adv-x="1516" 
d="M856 -338h-672l248 586l-424 956h615l145 -321l139 321h600z" />
    <glyph glyph-name="z" unicode="z" horiz-adv-x="1343" 
d="M1307 403v-403h-1289l435 819h-379v385h1239l-426 -801h420z" />
    <glyph glyph-name="braceleft" unicode="{" horiz-adv-x="788" 
d="M25 406v339q101 0 147.5 51.5t46.5 164.5v172q0 223 90 313t301 90h162v-328h-37q-90 0 -121.5 -45t-31.5 -176v-55q0 -309 -181 -354v-5q181 -45 181 -354v-55q0 -131 31.5 -176t121.5 -45h37v-328h-162q-216 0 -303.5 92t-87.5 311v172q0 112 -46 164t-148 52z" />
    <glyph glyph-name="bar" unicode="|" horiz-adv-x="1366" 
d="M518 1526h328v-1704h-328v1704z" />
    <glyph glyph-name="braceright" unicode="}" horiz-adv-x="788" 
d="M764 745v-339q-102 0 -148.5 -51.5t-46.5 -164.5v-172q0 -223 -89.5 -313t-301.5 -90h-162v328h37q90 0 122 45t32 176v55q0 309 180 354v5q-180 45 -180 354v55q0 128 -31.5 174.5t-122.5 46.5h-37v328h162q217 0 304 -92t87 -311v-172q0 -112 46.5 -164t148.5 -52z" />
    <glyph glyph-name="asciitilde" unicode="~" horiz-adv-x="1343" 
d="M1245 635q-97 -80 -169 -117t-161 -37q-48 0 -107.5 15.5t-174.5 72.5q-145 72 -215 72q-155 0 -320 -160v332q168 150 338 150q49 0 110 -16t181 -74q144 -70 209 -70q141 0 309 158v-326z" />
    <glyph glyph-name="Adieresis" unicode="&#xc4;" horiz-adv-x="2028" 
d="M678 0h-676l530 1526h963l530 -1526h-675l-88 258h-496zM889 618h250l-125 379zM1273 1608q-58 0 -98.5 40.5t-40.5 98.5t40.5 98.5t98.5 40.5t98.5 -40.5t40.5 -98.5t-40.5 -98.5t-98.5 -40.5zM757 1608q-58 0 -98.5 40.5t-40.5 98.5t40.5 98.5t98.5 40.5t98.5 -40.5
t40.5 -98.5t-40.5 -98.5t-98.5 -40.5z" />
    <glyph glyph-name="Aring" unicode="&#xc5;" horiz-adv-x="2028" 
d="M678 0h-676l530 1526h963l530 -1526h-675l-88 258h-496zM889 618h250l-125 379zM804 1827q0 87 61.5 148t149.5 61q87 0 148 -61t61 -148q0 -88 -61 -149.5t-148 -61.5t-149 62t-62 149zM1109 1827q0 39 -28 66.5t-68 27.5t-67 -27t-27 -67t27 -68t67 -28t68 28t28 68z
" />
    <glyph glyph-name="Ccedilla" unicode="&#xc7;" horiz-adv-x="1599" 
d="M614 -109l37 56q88 35 195 35v4q-351 31 -545.5 251t-194.5 515q0 347 240 572.5t610 225.5q160 0 330.5 -43.5t284.5 -117.5l-283 -539q-124 43 -274 43q-215 0 -215 -117q0 -56 60 -87.5t171 -31.5q150 0 258 54l283 -578q-261 -153 -629 -153v-5q92 -9 143.5 -47
t51.5 -96q0 -170 -369 -170q-174 0 -303 37q11 35 18 78q60 -10 105 -10q139 0 139 67q0 57 -113 57z" />
    <glyph glyph-name="Eacute" unicode="&#xc9;" horiz-adv-x="1473" 
d="M1417 383v-383h-1267v1526h1267v-383h-592v-189h412v-383h-412v-188h592zM547 1618l137 268h411l-342 -268h-206z" />
    <glyph glyph-name="Ntilde" unicode="&#xd1;" horiz-adv-x="1812" 
d="M1665 -12h-512l-328 481v-469h-675v1526h483l356 -516v516h676v-1538zM699 1626h-207q9 128 68 194t151 66q59 0 202 -36q109 -27 142 -27q51 0 62 61h203q-7 -126 -65.5 -193t-156.5 -67q-66 0 -211 39q-94 25 -122 25q-55 0 -66 -62z" />
    <glyph glyph-name="Odieresis" unicode="&#xd6;" 
d="M874 -25q-327 0 -554.5 229.5t-227.5 559.5q0 329 227.5 557.5t554.5 228.5q328 0 555.5 -228.5t227.5 -557.5q0 -330 -227.5 -559.5t-555.5 -229.5zM874 965q-65 0 -108 -45.5t-43 -114.5t43 -114.5t108 -45.5q66 0 109 45.5t43 114.5t-43 114.5t-109 45.5zM1134 1608
q-58 0 -98.5 40.5t-40.5 98.5t40.5 98.5t98.5 40.5t98.5 -40.5t40.5 -98.5t-40.5 -98.5t-98.5 -40.5zM618 1608q-58 0 -98.5 40.5t-40.5 98.5t40.5 98.5t98.5 40.5t98.5 -40.5t40.5 -98.5t-40.5 -98.5t-98.5 -40.5z" />
    <glyph glyph-name="Udieresis" unicode="&#xdc;" horiz-adv-x="1772" 
d="M1645 1526v-692q0 -453 -231.5 -656t-528.5 -203q-215 0 -408.5 112t-271.5 295.5t-78 481.5v662h676v-707q0 -114 20 -144t60 -30q56 0 71 54.5t15 183.5v643h676zM1144 1608q-58 0 -98.5 40.5t-40.5 98.5t40.5 98.5t98.5 40.5t98.5 -40.5t40.5 -98.5t-40.5 -98.5
t-98.5 -40.5zM628 1608q-58 0 -98.5 40.5t-40.5 98.5t40.5 98.5t98.5 40.5t98.5 -40.5t40.5 -98.5t-40.5 -98.5t-98.5 -40.5z" />
    <glyph glyph-name="aacute" unicode="&#xe1;" horiz-adv-x="1450" 
d="M127 709v362q262 143 594 143q316 0 466 -135t150 -413v-666h-618v90q-137 -100 -301 -100q-138 0 -230 89.5t-92 225.5q0 155 114 252.5t298 97.5q108 0 211 -28q0 84 -64.5 131t-179.5 47q-170 0 -348 -96zM719 266v168q-56 19 -101 19q-56 0 -90 -29t-34 -76
q0 -49 36.5 -82t92.5 -33q57 0 96 33zM537 1282l137 268h411l-342 -268h-206z" />
    <glyph glyph-name="agrave" unicode="&#xe0;" horiz-adv-x="1450" 
d="M127 709v362q262 143 594 143q316 0 466 -135t150 -413v-666h-618v90q-137 -100 -301 -100q-138 0 -230 89.5t-92 225.5q0 155 114 252.5t298 97.5q108 0 211 -28q0 84 -64.5 131t-179.5 47q-170 0 -348 -96zM719 266v168q-56 19 -101 19q-56 0 -90 -29t-34 -76
q0 -49 36.5 -82t92.5 -33q57 0 96 33zM915 1282h-206l-342 268h411z" />
    <glyph glyph-name="acircumflex" unicode="&#xe2;" horiz-adv-x="1450" 
d="M127 709v362q262 143 594 143q316 0 466 -135t150 -413v-666h-618v90q-137 -100 -301 -100q-138 0 -230 89.5t-92 225.5q0 155 114 252.5t298 97.5q108 0 211 -28q0 84 -64.5 131t-179.5 47q-170 0 -348 -96zM719 266v168q-56 19 -101 19q-56 0 -90 -29t-34 -76
q0 -49 36.5 -82t92.5 -33q57 0 96 33zM559 1286h-221l188 264h398l190 -264h-240l-170 121z" />
    <glyph glyph-name="adieresis" unicode="&#xe4;" horiz-adv-x="1450" 
d="M127 709v362q262 143 594 143q316 0 466 -135t150 -413v-666h-618v90q-137 -100 -301 -100q-138 0 -230 89.5t-92 225.5q0 155 114 252.5t298 97.5q108 0 211 -28q0 84 -64.5 131t-179.5 47q-170 0 -348 -96zM719 266v168q-56 19 -101 19q-56 0 -90 -29t-34 -76
q0 -49 36.5 -82t92.5 -33q57 0 96 33zM985 1272q-58 0 -98.5 40.5t-40.5 98.5t40.5 98.5t98.5 40.5t98.5 -40.5t40.5 -98.5t-40.5 -98.5t-98.5 -40.5zM469 1272q-58 0 -98.5 40.5t-40.5 98.5t40.5 98.5t98.5 40.5t98.5 -40.5t40.5 -98.5t-40.5 -98.5t-98.5 -40.5z" />
    <glyph glyph-name="atilde" unicode="&#xe3;" horiz-adv-x="1450" 
d="M127 709v362q262 143 594 143q316 0 466 -135t150 -413v-666h-618v90q-137 -100 -301 -100q-138 0 -230 89.5t-92 225.5q0 155 114 252.5t298 97.5q108 0 211 -28q0 84 -64.5 131t-179.5 47q-170 0 -348 -96zM719 266v168q-56 19 -101 19q-56 0 -90 -29t-34 -76
q0 -49 36.5 -82t92.5 -33q57 0 96 33zM518 1290h-207q9 128 68 194t151 66q59 0 202 -36q109 -27 142 -27q51 0 62 61h203q-7 -126 -65.5 -193t-156.5 -67q-66 0 -211 39q-94 25 -122 25q-55 0 -66 -62z" />
    <glyph glyph-name="aring" unicode="&#xe5;" horiz-adv-x="1450" 
d="M127 709v362q262 143 594 143q316 0 466 -135t150 -413v-666h-618v90q-137 -100 -301 -100q-138 0 -230 89.5t-92 225.5q0 155 114 252.5t298 97.5q108 0 211 -28q0 84 -64.5 131t-179.5 47q-170 0 -348 -96zM719 266v168q-56 19 -101 19q-56 0 -90 -29t-34 -76
q0 -49 36.5 -82t92.5 -33q57 0 96 33zM397 1491q0 87 61.5 148t149.5 61q87 0 148 -61t61 -148q0 -88 -61 -149.5t-148 -61.5t-149 62t-62 149zM702 1491q0 39 -28 66.5t-68 27.5t-67 -27t-27 -67t27 -68t67 -28t68 28t28 68z" />
    <glyph glyph-name="ccedilla" unicode="&#xe7;" horiz-adv-x="1343" 
d="M487 -100l37 55q84 33 185 33v4q-303 31 -462 200t-159 406q0 268 189 449.5t507 181.5q221 0 449 -72v-528q-184 88 -338 88q-89 0 -138.5 -28.5t-49.5 -78.5q0 -116 215 -116q184 0 311 63v-522q-160 -51 -416 -51v-4q89 -4 141 -43.5t52 -96.5q0 -170 -369 -170
q-174 0 -303 37q11 35 18 78q60 -10 105 -10q139 0 139 67q0 58 -113 58z" />
    <glyph glyph-name="eacute" unicode="&#xe9;" horiz-adv-x="1430" 
d="M1354 459v-211q-203 -266 -584 -266q-314 0 -505 174.5t-191 459.5q0 271 175.5 442t455.5 171q143 0 265 -48t211 -141t131 -216t42 -300h-631q34 -92 114 -144t183 -52q208 0 334 131zM686 735h291q-4 90 -44.5 140.5t-105.5 50.5q-57 0 -99 -48.5t-42 -142.5z
M526 1282l137 268h411l-342 -268h-206z" />
    <glyph glyph-name="egrave" unicode="&#xe8;" horiz-adv-x="1430" 
d="M1354 459v-211q-203 -266 -584 -266q-314 0 -505 174.5t-191 459.5q0 271 175.5 442t455.5 171q143 0 265 -48t211 -141t131 -216t42 -300h-631q34 -92 114 -144t183 -52q208 0 334 131zM686 735h291q-4 90 -44.5 140.5t-105.5 50.5q-57 0 -99 -48.5t-42 -142.5z
M904 1282h-206l-342 268h411z" />
    <glyph glyph-name="ecircumflex" unicode="&#xea;" horiz-adv-x="1430" 
d="M1354 459v-211q-203 -266 -584 -266q-314 0 -505 174.5t-191 459.5q0 271 175.5 442t455.5 171q143 0 265 -48t211 -141t131 -216t42 -300h-631q34 -92 114 -144t183 -52q208 0 334 131zM686 735h291q-4 90 -44.5 140.5t-105.5 50.5q-57 0 -99 -48.5t-42 -142.5z
M549 1286h-221l188 264h398l190 -264h-240l-170 121z" />
    <glyph glyph-name="edieresis" unicode="&#xeb;" horiz-adv-x="1430" 
d="M1354 459v-211q-203 -266 -584 -266q-314 0 -505 174.5t-191 459.5q0 271 175.5 442t455.5 171q143 0 265 -48t211 -141t131 -216t42 -300h-631q34 -92 114 -144t183 -52q208 0 334 131zM686 735h291q-4 90 -44.5 140.5t-105.5 50.5q-57 0 -99 -48.5t-42 -142.5z
M974 1272q-58 0 -98.5 40.5t-40.5 98.5t40.5 98.5t98.5 40.5t98.5 -40.5t40.5 -98.5t-40.5 -98.5t-98.5 -40.5zM458 1272q-58 0 -98.5 40.5t-40.5 98.5t40.5 98.5t98.5 40.5t98.5 -40.5t40.5 -98.5t-40.5 -98.5t-98.5 -40.5z" />
    <glyph glyph-name="iacute" unicode="&#xed;" horiz-adv-x="854" 
d="M737 1204v-1204h-618v1204q122 -69 317 -69q181 0 301 69zM238 1282l137 268h411l-342 -268h-206z" />
    <glyph glyph-name="igrave" unicode="&#xec;" horiz-adv-x="854" 
d="M737 1204v-1204h-618v1204q122 -69 317 -69q181 0 301 69zM616 1282h-206l-342 268h411z" />
    <glyph glyph-name="icircumflex" unicode="&#xee;" horiz-adv-x="854" 
d="M737 1204v-1204h-618v1204q122 -69 317 -69q181 0 301 69zM260 1286h-221l188 264h398l190 -264h-240l-170 121z" />
    <glyph glyph-name="idieresis" unicode="&#xef;" horiz-adv-x="854" 
d="M737 1204v-1204h-618v1204q122 -69 317 -69q181 0 301 69zM686 1272q-58 0 -98.5 40.5t-40.5 98.5t40.5 98.5t98.5 40.5t98.5 -40.5t40.5 -98.5t-40.5 -98.5t-98.5 -40.5zM170 1272q-58 0 -98.5 40.5t-40.5 98.5t40.5 98.5t98.5 40.5t98.5 -40.5t40.5 -98.5t-40.5 -98.5
t-98.5 -40.5z" />
    <glyph glyph-name="ntilde" unicode="&#xf1;" horiz-adv-x="1642" 
d="M731 1204v-151q156 161 373 161q211 0 323.5 -117.5t112.5 -348.5v-748h-584v702q0 150 -114 150q-55 0 -111 -39v-813h-618v1204h618zM615 1290h-207q9 128 68 194t151 66q59 0 202 -36q109 -27 142 -27q51 0 62 61h203q-7 -126 -65.5 -193t-156.5 -67q-66 0 -211 39
q-94 25 -122 25q-55 0 -66 -62z" />
    <glyph glyph-name="oacute" unicode="&#xf3;" horiz-adv-x="1473" 
d="M735 -18q-286 0 -471.5 172.5t-185.5 449.5t183 451t474 174q293 0 476.5 -174t183.5 -451q0 -276 -183.5 -449t-476.5 -173zM735 754q-60 0 -97.5 -38.5t-37.5 -99.5t37.5 -99t97.5 -38q61 0 99 38t38 99q0 62 -38 100t-99 38zM547 1282l137 268h411l-342 -268h-206z
" />
    <glyph glyph-name="ograve" unicode="&#xf2;" horiz-adv-x="1473" 
d="M735 -18q-286 0 -471.5 172.5t-185.5 449.5t183 451t474 174q293 0 476.5 -174t183.5 -451q0 -276 -183.5 -449t-476.5 -173zM735 754q-60 0 -97.5 -38.5t-37.5 -99.5t37.5 -99t97.5 -38q61 0 99 38t38 99q0 62 -38 100t-99 38zM925 1282h-206l-342 268h411z" />
    <glyph glyph-name="ocircumflex" unicode="&#xf4;" horiz-adv-x="1473" 
d="M735 -18q-286 0 -471.5 172.5t-185.5 449.5t183 451t474 174q293 0 476.5 -174t183.5 -451q0 -276 -183.5 -449t-476.5 -173zM735 754q-60 0 -97.5 -38.5t-37.5 -99.5t37.5 -99t97.5 -38q61 0 99 38t38 99q0 62 -38 100t-99 38zM569 1286h-221l188 264h398l190 -264h-240
l-170 121z" />
    <glyph glyph-name="odieresis" unicode="&#xf6;" horiz-adv-x="1473" 
d="M735 -18q-286 0 -471.5 172.5t-185.5 449.5t183 451t474 174q293 0 476.5 -174t183.5 -451q0 -276 -183.5 -449t-476.5 -173zM735 754q-60 0 -97.5 -38.5t-37.5 -99.5t37.5 -99t97.5 -38q61 0 99 38t38 99q0 62 -38 100t-99 38zM995 1272q-58 0 -98.5 40.5t-40.5 98.5
t40.5 98.5t98.5 40.5t98.5 -40.5t40.5 -98.5t-40.5 -98.5t-98.5 -40.5zM479 1272q-58 0 -98.5 40.5t-40.5 98.5t40.5 98.5t98.5 40.5t98.5 -40.5t40.5 -98.5t-40.5 -98.5t-98.5 -40.5z" />
    <glyph glyph-name="otilde" unicode="&#xf5;" horiz-adv-x="1473" 
d="M735 -18q-286 0 -471.5 172.5t-185.5 449.5t183 451t474 174q293 0 476.5 -174t183.5 -451q0 -276 -183.5 -449t-476.5 -173zM735 754q-60 0 -97.5 -38.5t-37.5 -99.5t37.5 -99t97.5 -38q61 0 99 38t38 99q0 62 -38 100t-99 38zM529 1290h-207q9 128 68 194t151 66
q59 0 202 -36q109 -27 142 -27q51 0 62 61h203q-7 -126 -65.5 -193t-156.5 -67q-66 0 -211 39q-94 25 -122 25q-55 0 -66 -62z" />
    <glyph glyph-name="uacute" unicode="&#xfa;" horiz-adv-x="1642" 
d="M1518 1204v-1204h-592v211h-4q-91 -115 -186 -168t-226 -53q-189 0 -304.5 112t-115.5 314v788h584v-649q0 -164 112 -164q75 0 113 64v749h619zM633 1282l137 268h411l-342 -268h-206z" />
    <glyph glyph-name="ugrave" unicode="&#xf9;" horiz-adv-x="1642" 
d="M1518 1204v-1204h-592v211h-4q-91 -115 -186 -168t-226 -53q-189 0 -304.5 112t-115.5 314v788h584v-649q0 -164 112 -164q75 0 113 64v749h619zM1011 1282h-206l-342 268h411z" />
    <glyph glyph-name="ucircumflex" unicode="&#xfb;" horiz-adv-x="1642" 
d="M1518 1204v-1204h-592v211h-4q-91 -115 -186 -168t-226 -53q-189 0 -304.5 112t-115.5 314v788h584v-649q0 -164 112 -164q75 0 113 64v749h619zM655 1286h-221l188 264h398l190 -264h-240l-170 121z" />
    <glyph glyph-name="udieresis" unicode="&#xfc;" horiz-adv-x="1642" 
d="M1518 1204v-1204h-592v211h-4q-91 -115 -186 -168t-226 -53q-189 0 -304.5 112t-115.5 314v788h584v-649q0 -164 112 -164q75 0 113 64v749h619zM1081 1272q-58 0 -98.5 40.5t-40.5 98.5t40.5 98.5t98.5 40.5t98.5 -40.5t40.5 -98.5t-40.5 -98.5t-98.5 -40.5zM565 1272
q-58 0 -98.5 40.5t-40.5 98.5t40.5 98.5t98.5 40.5t98.5 -40.5t40.5 -98.5t-40.5 -98.5t-98.5 -40.5z" />
    <glyph glyph-name="dagger" unicode="&#x2020;" horiz-adv-x="1194" 
d="M838 1501l-86 -397l333 80q50 -129 50 -242q0 -114 -50 -233l-333 77l112 -1077q-124 -47 -268 -47q-142 0 -266 47l112 1077l-333 -77q-48 121 -48 233q0 111 48 242l333 -80l-86 397q118 49 240 49q125 0 242 -49z" />
    <glyph glyph-name="degree" unicode="&#xb0;" horiz-adv-x="811" 
d="M121 1266q0 117 84.5 200.5t202.5 83.5q117 0 200.5 -83.5t83.5 -200.5q0 -119 -83 -203t-201 -84t-202.5 84.5t-84.5 202.5zM510 1266q0 41 -30.5 70.5t-71.5 29.5q-42 0 -71.5 -29.5t-29.5 -70.5q0 -42 30 -72.5t71 -30.5t71.5 30.5t30.5 72.5z" />
    <glyph glyph-name="cent" unicode="&#xa2;" horiz-adv-x="1343" 
d="M938 156v-156h-309v170q-258 49 -401.5 210.5t-143.5 387.5t147.5 397t397.5 213v148h309v-142q159 -16 295 -67v-520q-174 94 -344 94q-86 0 -136.5 -31.5t-50.5 -83.5q0 -108 216 -108q168 0 315 63v-526q-129 -43 -295 -49z" />
    <glyph glyph-name="sterling" unicode="&#xa3;" horiz-adv-x="1536" 
d="M1425 393v-393h-1321q33 269 113 657h-139v211h178q54 339 232 510.5t454 171.5q227 0 390.5 -120.5t172.5 -321.5q-133 109 -274 109q-255 0 -320 -349h187v-211h-224q-28 -164 -36 -264h587z" />
    <glyph glyph-name="section" unicode="&#xa7;" horiz-adv-x="1599" 
d="M1329 1483v-398q-77 85 -189.5 132t-228.5 47q-192 0 -192 -95q0 -19 39.5 -40.5t206.5 -72.5q207 -62 320 -114t167.5 -140.5t54.5 -195.5q0 -109 -52.5 -179t-168.5 -140q154 -108 154 -275q0 -169 -177 -259.5t-495 -90.5q-370 0 -592 113v385q89 -99 236 -155
t315 -56q172 0 172 80q0 29 -42 57t-224 84q-317 97 -429 185t-112 237q0 120 59.5 198.5t184.5 133.5q-146 107 -146 250q0 170 178.5 273t479.5 103q224 0 481 -67zM598 803q-72 -76 -72 -137q0 -68 80.5 -101t417.5 -147q49 53 49 112q0 66 -57 108.5t-191 88.5z" />
    <glyph glyph-name="bullet" unicode="&#x2022;" horiz-adv-x="1024" 
d="M180 721q0 137 97.5 234.5t234.5 97.5q136 0 234 -98t98 -234q0 -137 -97.5 -234.5t-234.5 -97.5q-136 0 -234 98t-98 234z" />
    <glyph glyph-name="paragraph" unicode="&#xb6;" 
d="M1618 1526v-318h-133v-1386h-297v1386h-166v-1386h-297v852h-135q-218 0 -336.5 119t-118.5 315q0 121 53.5 217.5t157 148.5t248.5 52h1024z" />
    <glyph glyph-name="germandbls" unicode="&#xdf;" horiz-adv-x="1622" 
d="M106 0v811q0 240 87 405.5t256 249.5t407 84q311 0 491.5 -126.5t180.5 -346.5q0 -196 -197 -301q238 -105 238 -362q0 -132 -57.5 -232t-168.5 -153.5t-270 -53.5q-128 0 -246 25v422q27 -4 35 -4q52 0 82.5 33.5t30.5 91.5q0 66 -31 97.5t-98 41.5v205q104 10 104 125
q0 123 -112 123q-62 0 -87.5 -41t-25.5 -146v-948h-619z" />
    <glyph glyph-name="registered" unicode="&#xae;" horiz-adv-x="1516" 
d="M-8 741q0 206 102.5 384t280 280t383.5 102q316 0 541 -224.5t225 -541.5q0 -316 -225 -541t-541 -225q-317 0 -541.5 225t-224.5 541zM1372 741q0 254 -180.5 434.5t-433.5 180.5q-254 0 -434.5 -180.5t-180.5 -434.5q0 -253 180.5 -433.5t434.5 -180.5
q253 0 433.5 180.5t180.5 433.5zM1161 332h-205q-122 245 -173.5 289.5t-108.5 44.5h-56v-334h-165v813h409q116 0 183 -63.5t67 -163.5q0 -92 -57.5 -153t-161.5 -75v-4q44 -14 71.5 -40t100.5 -150zM618 795h160q160 0 160 112q0 111 -170 111h-150v-223z" />
    <glyph glyph-name="copyright" unicode="&#xa9;" horiz-adv-x="1516" 
d="M-8 741q0 206 102.5 384t280 280t383.5 102q316 0 541 -224.5t225 -541.5q0 -316 -225 -541t-541 -225q-317 0 -541.5 225t-224.5 541zM1372 741q0 254 -180.5 434.5t-433.5 180.5q-254 0 -434.5 -180.5t-180.5 -434.5q0 -253 180.5 -433.5t434.5 -180.5
q253 0 433.5 180.5t180.5 433.5zM942 629l162 -56q-82 -258 -336 -258q-176 0 -281.5 115t-105.5 307q0 199 104.5 314.5t284.5 115.5q248 0 334 -243l-162 -39q-52 139 -178 139q-98 0 -152.5 -74t-54.5 -209t52.5 -209.5t146.5 -74.5q137 0 186 172z" />
    <glyph glyph-name="trademark" unicode="&#x2122;" horiz-adv-x="2048" 
d="M1915 711h-225v592l-154 -592h-184l-152 587v-587h-225v815h354l115 -453l119 453h352v-815zM883 1331h-283v-620h-235v620h-283v195h801v-195z" />
    <glyph glyph-name="acute" unicode="&#xb4;" horiz-adv-x="682" 
d="M152 1282l137 268h411l-342 -268h-206z" />
    <glyph glyph-name="dieresis" unicode="&#xa8;" horiz-adv-x="682" 
d="M600 1272q-58 0 -98.5 40.5t-40.5 98.5t40.5 98.5t98.5 40.5t98.5 -40.5t40.5 -98.5t-40.5 -98.5t-98.5 -40.5zM84 1272q-58 0 -98.5 40.5t-40.5 98.5t40.5 98.5t98.5 40.5t98.5 -40.5t40.5 -98.5t-40.5 -98.5t-98.5 -40.5z" />
    <glyph glyph-name="notequal" unicode="&#x2260;" horiz-adv-x="1366" 
d="M1253 287h-610l-156 -355h-288l157 355h-250v323h394l75 168h-469v324h613l155 352h285l-155 -352h249v-324h-393l-74 -168h467v-323z" />
    <glyph glyph-name="AE" unicode="&#xc6;" horiz-adv-x="2497" 
d="M2449 383v-383h-1267v285h-389l-117 -285h-676l678 1526h1771v-383h-591v-187h413v-383h-413v-190h591zM924 612h258v658z" />
    <glyph glyph-name="Oslash" unicode="&#xd8;" 
d="M395 137l-202 -207l-152 146l207 211q-156 219 -156 477q0 329 227.5 557.5t554.5 228.5q257 0 463 -149l152 153l153 -143l-153 -158q168 -211 168 -489q0 -330 -227.5 -559.5t-555.5 -229.5q-267 0 -479 162zM874 965q-65 0 -108 -45.5t-43 -114.5t43 -114.5t108 -45.5
q66 0 109 45.5t43 114.5t-43 114.5t-109 45.5z" />
    <glyph glyph-name="infinity" unicode="&#x221e;" horiz-adv-x="1460" 
d="M682 844q78 126 154 176.5t168 50.5q132 0 219.5 -94t87.5 -254q0 -163 -87.5 -256.5t-219.5 -93.5q-185 0 -322 227q-64 -87 -143.5 -129.5t-145.5 -42.5q-98 0 -169.5 79.5t-71.5 215.5q0 135 71.5 213t169.5 78q73 0 150 -43.5t139 -126.5zM774 725q90 -143 138 -174
t96 -31q73 0 115 58.5t42 146.5q0 95 -44.5 147t-110.5 52q-43 0 -93 -28.5t-143 -170.5zM596 725q-101 141 -190 141q-46 0 -79.5 -36t-33.5 -103q0 -59 28.5 -101t84.5 -42q40 0 83 30t107 111z" />
    <glyph glyph-name="plusminus" unicode="&#xb1;" horiz-adv-x="1366" 
d="M109 1055h411v411h324v-411h411v-324h-411v-412h-324v412h-411v324zM109 246h1146v-324h-1146v324z" />
    <glyph glyph-name="lessequal" unicode="&#x2264;" horiz-adv-x="1366" 
d="M109 1024l1148 475v-350l-702 -272l702 -273v-350l-1148 475v295zM109 246h1146v-324h-1146v324z" />
    <glyph glyph-name="greaterequal" unicode="&#x2265;" horiz-adv-x="1366" 
d="M1257 1024v-295l-1148 -475v350l702 273l-702 272v350zM109 246h1146v-324h-1146v324z" />
    <glyph glyph-name="yen" unicode="&#xa5;" horiz-adv-x="1855" 
d="M1266 616v-143h569v-205h-569v-268h-676v268h-570v205h570v143h-570v205h465l-475 705h680l238 -346l237 346h680l-475 -705h465v-205h-569z" />
    <glyph glyph-name="mu1" unicode="&#xb5;" horiz-adv-x="1366" 
d="M823 111h-4q-31 -121 -119 -121q-44 0 -80 33t-46 88h-4v-543h-539v1636h539v-669q0 -144 116 -144q46 0 78 26.5t32 37.5v749h539v-1204h-512v111z" />
    <glyph glyph-name="partialdiff" unicode="&#x2202;" horiz-adv-x="1012" 
d="M379 1122l-137 84q50 139 149.5 212t220.5 73q173 0 269 -144.5t96 -404.5q0 -193 -44.5 -376.5t-120.5 -313t-199 -203.5t-259 -74q-139 0 -225 94.5t-86 260.5q0 142 68.5 268t180 203t235 109t298.5 32q0 172 -54.5 269.5t-164.5 97.5q-75 0 -126.5 -45t-100.5 -142z
M813 758l-43 2q-222 0 -360 -125t-138 -297q0 -72 40.5 -122t101.5 -50q143 0 254.5 163t144.5 429z" />
    <glyph glyph-name="summation" unicode="&#x2211;" horiz-adv-x="1460" 
d="M139 1491h1237v-164h-989l608 -774l-649 -823h1040v-160h-1263v186l618 789l-602 772v174z" />
    <glyph glyph-name="product" unicode="&#x220f;" horiz-adv-x="1686" 
d="M162 1491h1362v-1921h-193v1747h-977v-1747h-192v1921z" />
    <glyph glyph-name="pi1" horiz-adv-x="1124" 
d="M0 1063h1124v-203h-170v-860h-286v860h-209v-860h-291v860h-168v203z" />
    <glyph glyph-name="integral" unicode="&#x222b;" horiz-adv-x="561" 
d="M198 779q0 87 6 286l11 355q5 156 27.5 236.5t50.5 122t68 63.5t73 22q50 0 87.5 -34.5t37.5 -74.5q0 -44 -25.5 -73t-64.5 -29q-34 0 -78 35q-20 20 -39 20q-41 0 -41 -63q0 -33 11 -146q36 -412 36 -665q0 -27 -8.5 -334.5t-15.5 -384t-26 -147t-48 -111t-63.5 -58.5
t-77.5 -18q-53 0 -86 32.5t-33 88.5q0 44 24.5 71t65.5 27q40 0 70 -33q27 -30 49 -30q39 0 39 61q0 33 -10 119q-40 338 -40 662z" />
    <glyph glyph-name="ordfeminine" unicode="&#xaa;" horiz-adv-x="938" 
d="M80 1237v219q101 46 183 66t202 20q209 0 306 -80.5t97 -247.5v-401h-405v55q-98 -61 -195 -61q-89 0 -149 55t-60 135q0 93 75.5 152t195.5 59q59 0 133 -18q0 49 -41 76.5t-115 27.5q-108 0 -227 -57zM463 973v102q-35 10 -64 10q-37 0 -59.5 -17t-22.5 -46t24.5 -48.5
t61.5 -19.5q27 0 60 19z" />
    <glyph glyph-name="ordmasculine" unicode="&#xba;" horiz-adv-x="961" 
d="M479 803q-189 0 -308.5 105t-119.5 270q0 163 120 267.5t308 104.5q189 0 308.5 -104.5t119.5 -267.5q0 -166 -119.5 -270.5t-308.5 -104.5zM481 1102q37 0 61.5 23.5t24.5 58.5q0 37 -24 59.5t-64 22.5q-38 0 -63 -23.5t-25 -58.5t26 -58.5t64 -23.5z" />
    <glyph glyph-name="Ohm" unicode="&#x2126;" horiz-adv-x="1573" 
d="M463 207q-198 80 -291.5 237t-93.5 367q0 312 191 502t507 190q372 0 552.5 -201.5t180.5 -488.5q0 -202 -91.5 -359t-289.5 -245l330 22h72v-231h-641v244q162 76 233.5 220t71.5 320q0 246 -114.5 373t-293.5 127q-169 0 -284 -129t-115 -367q0 -165 74 -318.5
t239 -225.5v-244h-645v229h99z" />
    <glyph glyph-name="ae" unicode="&#xe6;" horiz-adv-x="2068" 
d="M2001 457v-205q-233 -270 -580 -270q-334 0 -536 178q-237 -178 -469 -178q-146 0 -236 88.5t-90 232.5q0 165 111.5 262t302.5 97q122 0 209 -35q-7 99 -66.5 145.5t-185.5 46.5q-171 0 -344 -96v364q254 142 549 142q234 0 374 -80q120 80 312 80q159 0 300.5 -63
t245 -213.5t103.5 -430.5h-629q37 -92 119 -143t186 -51q189 0 324 129zM1335 733h289q-14 191 -147 191q-59 0 -100.5 -47t-41.5 -144zM713 258v178q-47 23 -97 23q-59 0 -96 -31t-37 -82q0 -52 37 -87.5t90 -35.5q52 0 103 35z" />
    <glyph glyph-name="oslash" unicode="&#xf8;" horiz-adv-x="1473" 
d="M344 88l-151 -160l-132 117l152 162q-62 66 -98.5 174t-36.5 223q0 277 183 451t474 174q211 0 361 -90l143 151l129 -119l-131 -139q158 -181 158 -428q0 -276 -183.5 -449t-476.5 -173q-219 0 -391 106zM735 754q-60 0 -97.5 -38.5t-37.5 -99.5t37.5 -99t97.5 -38
q61 0 99 38t38 99q0 62 -38 100t-99 38z" />
    <glyph glyph-name="questiondown" unicode="&#xbf;" horiz-adv-x="1174" 
d="M1161 276q-63 -268 -233 -445t-385 -177q-183 0 -306.5 125.5t-123.5 310.5q0 174 100.5 330t310.5 328q-170 63 -170 233q0 104 72 176t176 72q106 0 179 -71t73 -173q0 -49 -20.5 -102.5t-102.5 -150.5q-86 -104 -108.5 -164t-22.5 -115q0 -122 72.5 -196.5
t191.5 -74.5q114 0 297 94z" />
    <glyph glyph-name="exclamdown" unicode="&#xa1;" horiz-adv-x="831" 
d="M496 766q258 -431 258 -696q0 -181 -97 -298.5t-243 -117.5q-144 0 -239 114t-95 289q0 299 260 709q-77 29 -119.5 89.5t-42.5 135.5q0 99 69.5 168.5t168.5 69.5q98 0 168.5 -70t70.5 -168q0 -75 -42 -135.5t-117 -89.5z" />
    <glyph glyph-name="logicalnot" unicode="&#xac;" horiz-adv-x="1366" 
d="M109 1102h1148v-815h-323v491h-825v324z" />
    <glyph glyph-name="radical" unicode="&#x221a;" horiz-adv-x="1124" 
d="M1051 1870h73l-313 -1948l-496 1020l-196 -90l-35 63l301 152l406 -823z" />
    <glyph glyph-name="florin" unicode="&#x192;" horiz-adv-x="1812" 
d="M1346 1016h282l-90 -311h-281l-270 -945q-79 -276 -518 -276q-212 0 -489 61l124 338q149 -39 224 -39q59 0 89.5 26t47.5 87l209 748h-275l84 311h279q57 251 120.5 349.5t187.5 138.5t280 40q237 0 495 -65l-116 -324q-136 41 -224 41q-63 0 -98.5 -40.5t-60.5 -139.5z
" />
    <glyph glyph-name="approxequal" unicode="&#x2248;" horiz-adv-x="1366" 
d="M1257 840q-97 -80 -169 -117t-160 -37q-49 0 -108.5 15.5t-174.5 72.5q-144 72 -215 72q-154 0 -321 -160v332q167 149 337 149q50 0 111 -15.5t180 -73.5q144 -70 209 -70q141 0 311 157v-325zM1257 369q-97 -80 -169 -117t-160 -37q-49 0 -108.5 15.5t-174.5 72.5
q-144 72 -215 72q-154 0 -321 -160v332q167 149 337 149q50 0 111 -15.5t180 -73.5q144 -70 209 -70q141 0 311 157v-325z" />
    <glyph glyph-name="Delta" unicode="&#x2206;" horiz-adv-x="1253" 
d="M1227 0h-1200l626 1386zM989 82l-397 967l-440 -967h837z" />
    <glyph glyph-name="guillemotleft" unicode="&#xab;" horiz-adv-x="1430" 
d="M1194 606l190 -534h-413l-266 534l266 535h413zM508 606l190 -534h-413l-267 534l267 535h413z" />
    <glyph glyph-name="guillemotright" unicode="&#xbb;" horiz-adv-x="1430" 
d="M922 606l-191 535h414l266 -535l-266 -534h-414zM236 606l-191 535h414l266 -535l-266 -534h-414z" />
    <glyph glyph-name="ellipsis" unicode="&#x2026;" horiz-adv-x="2048" 
d="M82 236q0 107 76.5 183.5t183.5 76.5t183.5 -76.5t76.5 -183.5t-76.5 -184t-183.5 -77t-183.5 77t-76.5 184zM764 236q0 107 76.5 183.5t183.5 76.5t183.5 -76.5t76.5 -183.5t-76.5 -184t-183.5 -77t-183.5 77t-76.5 184zM1446 236q0 107 76.5 183.5t183.5 76.5
t183.5 -76.5t76.5 -183.5t-76.5 -184t-183.5 -77t-183.5 77t-76.5 184z" />
    <glyph glyph-name="nonbreakingspace" unicode="&#xa0;" horiz-adv-x="682" 
 />
    <glyph glyph-name="Agrave" unicode="&#xc0;" horiz-adv-x="2028" 
d="M678 0h-676l530 1526h963l530 -1526h-675l-88 258h-496zM889 618h250l-125 379zM1203 1618h-206l-342 268h411z" />
    <glyph glyph-name="Atilde" unicode="&#xc3;" horiz-adv-x="2028" 
d="M678 0h-676l530 1526h963l530 -1526h-675l-88 258h-496zM889 618h250l-125 379zM807 1626h-207q9 128 68 194t151 66q59 0 202 -36q109 -27 142 -27q51 0 62 61h203q-7 -126 -65.5 -193t-156.5 -67q-66 0 -211 39q-94 25 -122 25q-55 0 -66 -62z" />
    <glyph glyph-name="Otilde" unicode="&#xd5;" 
d="M874 -25q-327 0 -554.5 229.5t-227.5 559.5q0 329 227.5 557.5t554.5 228.5q328 0 555.5 -228.5t227.5 -557.5q0 -330 -227.5 -559.5t-555.5 -229.5zM874 965q-65 0 -108 -45.5t-43 -114.5t43 -114.5t108 -45.5q66 0 109 45.5t43 114.5t-43 114.5t-109 45.5zM668 1626
h-207q9 128 68 194t151 66q59 0 202 -36q109 -27 142 -27q51 0 62 61h203q-7 -126 -65.5 -193t-156.5 -67q-66 0 -211 39q-94 25 -122 25q-55 0 -66 -62z" />
    <glyph glyph-name="OE" unicode="&#x152;" horiz-adv-x="2347" 
d="M2302 383v-383h-1348q-412 0 -636 222t-224 536q0 199 100 381t290.5 284.5t457.5 102.5h1360v-383h-592v-185h412v-383h-412v-192h592zM879 639q67 0 111 43.5t44 112.5q0 74 -44 121t-113 47t-114.5 -47t-45.5 -117q0 -69 45.5 -114.5t116.5 -45.5z" />
    <glyph glyph-name="oe" unicode="&#x153;" horiz-adv-x="2218" 
d="M2157 459v-201q-79 -127 -239.5 -201.5t-340.5 -74.5q-263 0 -428 118q-158 -118 -414 -118q-276 0 -462.5 170.5t-186.5 445.5q0 285 181 458t483 173q229 0 383 -105q165 105 376 105q149 0 272 -48.5t210 -142t126.5 -216t39.5 -300.5h-629q83 -194 305 -194
q179 0 324 131zM1491 733h291q-11 195 -146 195q-138 0 -145 -195zM750 483q58 0 94.5 38t36.5 97q0 62 -37.5 100t-98.5 38q-59 0 -98 -39t-39 -99q0 -59 40 -97t102 -38z" />
    <glyph glyph-name="endash" unicode="&#x2013;" horiz-adv-x="1024" 
d="M-12 772h1048v-518h-1048v518z" />
    <glyph glyph-name="emdash" unicode="&#x2014;" horiz-adv-x="2048" 
d="M-12 772h2072v-518h-2072v518z" />
    <glyph glyph-name="quotedblleft" unicode="&#x201c;" horiz-adv-x="1686" 
d="M1483 1550l18 -12q-140 -86 -158 -256q267 -79 267 -319q0 -148 -98 -249.5t-240 -101.5q-144 0 -237 102t-93 261q0 200 154.5 368t386.5 207zM627 1550l18 -12q-140 -86 -158 -256q267 -79 267 -319q0 -148 -98 -249.5t-240 -101.5q-144 0 -237 102t-93 261
q0 200 154.5 368t386.5 207z" />
    <glyph glyph-name="quotedblright" unicode="&#x201d;" horiz-adv-x="1686" 
d="M1059 612l-19 13q141 86 158 256q-266 79 -266 319q0 147 98 248.5t240 101.5q144 0 236.5 -101.5t92.5 -260.5q0 -200 -154 -368t-386 -208zM203 612l-19 13q141 86 158 256q-266 79 -266 319q0 147 98 248.5t240 101.5q144 0 236.5 -101.5t92.5 -260.5
q0 -200 -154 -368t-386 -208z" />
    <glyph glyph-name="quoteleft" unicode="&#x2018;" horiz-adv-x="831" 
d="M629 1550l18 -12q-140 -86 -158 -256q267 -79 267 -319q0 -148 -98 -249.5t-240 -101.5q-144 0 -237 102t-93 261q0 200 154.5 368t386.5 207z" />
    <glyph glyph-name="quoteright" unicode="&#x2019;" horiz-adv-x="831" 
d="M203 612l-19 13q141 86 158 256q-266 79 -266 319q0 147 98 248.5t240 101.5q144 0 236.5 -101.5t92.5 -260.5q0 -200 -154 -368t-386 -208z" />
    <glyph glyph-name="divide" unicode="&#xf7;" horiz-adv-x="1366" 
d="M498 1116q0 76 54.5 130t131.5 54q76 0 130 -53.5t54 -130.5t-54 -131.5t-130 -54.5t-131 55t-55 131zM109 856h1148v-324h-1148v324zM498 274q0 77 54.5 131t131.5 54q76 0 130 -54t54 -131q0 -76 -54 -131t-130 -55t-131 55t-55 131z" />
    <glyph glyph-name="lozenge" unicode="&#x25ca;" horiz-adv-x="1012" 
d="M549 1421l418 -712l-418 -709h-111l-391 709l391 712h111zM496 1325l-340 -616l340 -615l358 615z" />
    <glyph glyph-name="ydieresis" unicode="&#xff;" horiz-adv-x="1516" 
d="M856 -338h-672l248 586l-424 956h615l145 -321l139 321h600zM1017 1272q-58 0 -98.5 40.5t-40.5 98.5t40.5 98.5t98.5 40.5t98.5 -40.5t40.5 -98.5t-40.5 -98.5t-98.5 -40.5zM501 1272q-58 0 -98.5 40.5t-40.5 98.5t40.5 98.5t98.5 40.5t98.5 -40.5t40.5 -98.5
t-40.5 -98.5t-98.5 -40.5z" />
    <glyph glyph-name="Ydieresis" unicode="&#x178;" horiz-adv-x="1855" 
d="M1266 0h-676v666l-582 860h684l236 -346l235 346h684l-581 -860v-666zM1187 1608q-58 0 -98.5 40.5t-40.5 98.5t40.5 98.5t98.5 40.5t98.5 -40.5t40.5 -98.5t-40.5 -98.5t-98.5 -40.5zM671 1608q-58 0 -98.5 40.5t-40.5 98.5t40.5 98.5t98.5 40.5t98.5 -40.5t40.5 -98.5
t-40.5 -98.5t-98.5 -40.5z" />
    <glyph glyph-name="fraction" unicode="&#x2044;" horiz-adv-x="106" 
d="M-457 -25l791 1575h227l-790 -1575h-228z" />
    <glyph glyph-name="currency" unicode="&#xa4;" horiz-adv-x="1366" 
d="M113 1057l213 213l141 -142q100 50 213 50q114 0 223 -54l146 146l213 -213l-148 -148q51 -103 51 -217q0 -102 -49 -213l146 -145l-213 -213l-142 141q-112 -55 -227 -55q-117 0 -217 51l-137 -137l-213 213l135 135q-53 111 -53 223q0 125 55 228zM872 692
q0 80 -56.5 136.5t-135.5 56.5q-80 0 -136.5 -56.5t-56.5 -136.5t56.5 -136t136.5 -56q79 0 135.5 56.5t56.5 135.5z" />
    <glyph glyph-name="guilsinglleft" unicode="&#x2039;" horiz-adv-x="748" 
d="M510 606l190 -534h-413l-267 534l267 535h413z" />
    <glyph glyph-name="guilsinglright" unicode="&#x203a;" horiz-adv-x="748" 
d="M238 606l-191 535h414l266 -535l-266 -534h-414z" />
    <glyph glyph-name="fi" unicode="&#xf001;" 
d="M1022 586h-231v-586h-619v586h-127v254h135q0 291 108.5 440.5t251.5 209.5t300 60q97 0 182 -24v-322q132 -69 317 -69q180 0 301 69v-1204h-618v586zM1022 840v135q-46 37 -102 37q-54 0 -91.5 -42t-37.5 -130h231zM1462 1200q-72 0 -124 52t-52 124t52 123t124 51
t123 -51t51 -123t-51 -124t-123 -52z" />
    <glyph glyph-name="fi" unicode="&#xfb01;" 
d="M1022 586h-231v-586h-619v586h-127v254h135q0 291 108.5 440.5t251.5 209.5t300 60q97 0 182 -24v-322q132 -69 317 -69q180 0 301 69v-1204h-618v586zM1022 840v135q-46 37 -102 37q-54 0 -91.5 -42t-37.5 -130h231zM1462 1200q-72 0 -124 52t-52 124t52 123t124 51
t123 -51t51 -123t-51 -124t-123 -52z" />
    <glyph glyph-name="fl" unicode="&#xf002;" 
d="M1022 586h-231v-586h-619v586h-127v254h135q0 286 102 433.5t249 212t317 64.5q48 0 94 -8l86 -16h612v-1526h-618v586zM1022 840v135q-46 37 -102 37q-54 0 -91.5 -42t-37.5 -130h231z" />
    <glyph glyph-name="fl" unicode="&#xfb02;" 
d="M1022 586h-231v-586h-619v586h-127v254h135q0 286 102 433.5t249 212t317 64.5q48 0 94 -8l86 -16h612v-1526h-618v586zM1022 840v135q-46 37 -102 37q-54 0 -91.5 -42t-37.5 -130h231z" />
    <glyph glyph-name="daggerdbl" unicode="&#x2021;" horiz-adv-x="1194" 
d="M838 1501l-86 -350l333 78q50 -126 50 -232q0 -110 -50 -219l-333 76l43 -248l-43 -248l333 76q50 -108 50 -219q0 -108 -50 -233l-333 79l86 -350q-117 -49 -242 -49q-122 0 -240 49l86 350l-333 -79q-48 120 -48 233q0 116 48 219l333 -76l-43 248l43 248l-333 -76
q-48 103 -48 219q0 112 48 232l333 -78l-86 350q118 49 240 49q125 0 242 -49z" />
    <glyph glyph-name="periodcentered" unicode="&#xb7;" horiz-adv-x="831" 
d="M90 793q0 135 95.5 230t230.5 95q134 0 229.5 -95.5t95.5 -229.5q0 -135 -95.5 -230.5t-229.5 -95.5q-135 0 -230.5 95.5t-95.5 230.5z" />
    <glyph glyph-name="periodcentered" unicode="&#x2219;" horiz-adv-x="831" 
d="M90 793q0 135 95.5 230t230.5 95q134 0 229.5 -95.5t95.5 -229.5q0 -135 -95.5 -230.5t-229.5 -95.5q-135 0 -230.5 95.5t-95.5 230.5z" />
    <glyph glyph-name="quotesinglbase" unicode="&#x201a;" horiz-adv-x="831" 
d="M215 -289l-18 13q140 86 157 256q-266 79 -266 319q0 147 98 248.5t240 101.5q144 0 237 -101.5t93 -260.5q0 -200 -154.5 -368t-386.5 -208z" />
    <glyph glyph-name="quotedblbase" unicode="&#x201e;" horiz-adv-x="1686" 
d="M1069 -289l-18 13q140 86 157 256q-266 79 -266 319q0 147 98 248.5t240 101.5q144 0 237 -101.5t93 -260.5q0 -200 -154.5 -368t-386.5 -208zM213 -289l-18 13q140 86 157 256q-266 79 -266 319q0 147 98 248.5t240 101.5q144 0 237 -101.5t93 -260.5
q0 -200 -154.5 -368t-386.5 -208z" />
    <glyph glyph-name="perthousand" unicode="&#x2030;" horiz-adv-x="3201" 
d="M518 1550q200 0 335.5 -119t135.5 -292t-135.5 -291.5t-335.5 -118.5q-199 0 -334 118.5t-135 291.5q0 174 135 292.5t334 118.5zM518 1243q-40 0 -66 -23.5t-26 -58.5q0 -36 26 -60t66 -24q42 0 68 24t26 60t-26.5 59t-67.5 23zM571 -25l791 1575h225l-788 -1575h-228z
M2677 807q199 0 335 -119t136 -293q0 -172 -136 -290.5t-335 -118.5t-334 118.5t-135 290.5q0 174 134.5 293t334.5 119zM2677 500q-40 0 -66 -23.5t-26 -58.5q0 -37 26 -60.5t66 -23.5q41 0 67.5 23.5t26.5 60.5q0 35 -26.5 58.5t-67.5 23.5zM1651 807q199 0 335 -119
t136 -293q0 -172 -136 -290.5t-335 -118.5t-334 118.5t-135 290.5q0 174 134.5 293t334.5 119zM1651 500q-40 0 -66 -23.5t-26 -58.5q0 -37 26 -60.5t66 -23.5q41 0 67.5 23.5t26.5 60.5q0 35 -26.5 58.5t-67.5 23.5z" />
    <glyph glyph-name="Acircumflex" unicode="&#xc2;" horiz-adv-x="2028" 
d="M678 0h-676l530 1526h963l530 -1526h-675l-88 258h-496zM889 618h250l-125 379zM848 1622h-221l188 264h398l190 -264h-240l-170 121z" />
    <glyph glyph-name="Ecircumflex" unicode="&#xca;" horiz-adv-x="1473" 
d="M1417 383v-383h-1267v1526h1267v-383h-592v-189h412v-383h-412v-188h592zM569 1622h-221l188 264h398l190 -264h-240l-170 121z" />
    <glyph glyph-name="Aacute" unicode="&#xc1;" horiz-adv-x="2028" 
d="M678 0h-676l530 1526h963l530 -1526h-675l-88 258h-496zM889 618h250l-125 379zM825 1618l137 268h411l-342 -268h-206z" />
    <glyph glyph-name="Edieresis" unicode="&#xcb;" horiz-adv-x="1473" 
d="M1417 383v-383h-1267v1526h1267v-383h-592v-189h412v-383h-412v-188h592zM995 1608q-58 0 -98.5 40.5t-40.5 98.5t40.5 98.5t98.5 40.5t98.5 -40.5t40.5 -98.5t-40.5 -98.5t-98.5 -40.5zM479 1608q-58 0 -98.5 40.5t-40.5 98.5t40.5 98.5t98.5 40.5t98.5 -40.5
t40.5 -98.5t-40.5 -98.5t-98.5 -40.5z" />
    <glyph glyph-name="Egrave" unicode="&#xc8;" horiz-adv-x="1473" 
d="M1417 383v-383h-1267v1526h1267v-383h-592v-189h412v-383h-412v-188h592zM925 1618h-206l-342 268h411z" />
    <glyph glyph-name="Iacute" unicode="&#xcd;" horiz-adv-x="981" 
d="M154 0v1526h675v-1526h-675zM301 1618l137 268h411l-342 -268h-206z" />
    <glyph glyph-name="Icircumflex" unicode="&#xce;" horiz-adv-x="981" 
d="M154 0v1526h675v-1526h-675zM323 1622h-221l188 264h398l190 -264h-240l-170 121z" />
    <glyph glyph-name="Idieresis" unicode="&#xcf;" horiz-adv-x="981" 
d="M154 0v1526h675v-1526h-675zM749 1608q-58 0 -98.5 40.5t-40.5 98.5t40.5 98.5t98.5 40.5t98.5 -40.5t40.5 -98.5t-40.5 -98.5t-98.5 -40.5zM233 1608q-58 0 -98.5 40.5t-40.5 98.5t40.5 98.5t98.5 40.5t98.5 -40.5t40.5 -98.5t-40.5 -98.5t-98.5 -40.5z" />
    <glyph glyph-name="Igrave" unicode="&#xcc;" horiz-adv-x="981" 
d="M154 0v1526h675v-1526h-675zM679 1618h-206l-342 268h411z" />
    <glyph glyph-name="Oacute" unicode="&#xd3;" 
d="M874 -25q-327 0 -554.5 229.5t-227.5 559.5q0 329 227.5 557.5t554.5 228.5q328 0 555.5 -228.5t227.5 -557.5q0 -330 -227.5 -559.5t-555.5 -229.5zM874 965q-65 0 -108 -45.5t-43 -114.5t43 -114.5t108 -45.5q66 0 109 45.5t43 114.5t-43 114.5t-109 45.5zM686 1618
l137 268h411l-342 -268h-206z" />
    <glyph glyph-name="Ocircumflex" unicode="&#xd4;" 
d="M874 -25q-327 0 -554.5 229.5t-227.5 559.5q0 329 227.5 557.5t554.5 228.5q328 0 555.5 -228.5t227.5 -557.5q0 -330 -227.5 -559.5t-555.5 -229.5zM874 965q-65 0 -108 -45.5t-43 -114.5t43 -114.5t108 -45.5q66 0 109 45.5t43 114.5t-43 114.5t-109 45.5zM708 1622
h-221l188 264h398l190 -264h-240l-170 121z" />
    <glyph glyph-name="Ograve" unicode="&#xd2;" 
d="M874 -25q-327 0 -554.5 229.5t-227.5 559.5q0 329 227.5 557.5t554.5 228.5q328 0 555.5 -228.5t227.5 -557.5q0 -330 -227.5 -559.5t-555.5 -229.5zM874 965q-65 0 -108 -45.5t-43 -114.5t43 -114.5t108 -45.5q66 0 109 45.5t43 114.5t-43 114.5t-109 45.5zM1064 1618
h-206l-342 268h411z" />
    <glyph glyph-name="Uacute" unicode="&#xda;" horiz-adv-x="1772" 
d="M1645 1526v-692q0 -453 -231.5 -656t-528.5 -203q-215 0 -408.5 112t-271.5 295.5t-78 481.5v662h676v-707q0 -114 20 -144t60 -30q56 0 71 54.5t15 183.5v643h676zM696 1618l137 268h411l-342 -268h-206z" />
    <glyph glyph-name="Ucircumflex" unicode="&#xdb;" horiz-adv-x="1772" 
d="M1645 1526v-692q0 -453 -231.5 -656t-528.5 -203q-215 0 -408.5 112t-271.5 295.5t-78 481.5v662h676v-707q0 -114 20 -144t60 -30q56 0 71 54.5t15 183.5v643h676zM719 1622h-221l188 264h398l190 -264h-240l-170 121z" />
    <glyph glyph-name="Ugrave" unicode="&#xd9;" horiz-adv-x="1772" 
d="M1645 1526v-692q0 -453 -231.5 -656t-528.5 -203q-215 0 -408.5 112t-271.5 295.5t-78 481.5v662h676v-707q0 -114 20 -144t60 -30q56 0 71 54.5t15 183.5v643h676zM1074 1618h-206l-342 268h411z" />
    <glyph glyph-name="dotlessi" unicode="&#x131;" horiz-adv-x="854" 
d="M737 1204v-1204h-618v1204q122 -69 317 -69q181 0 301 69z" />
    <glyph glyph-name="circumflex" unicode="&#x2c6;" horiz-adv-x="682" 
d="M174 1286h-221l188 264h398l190 -264h-240l-170 121z" />
    <glyph glyph-name="tilde" unicode="&#x2dc;" horiz-adv-x="682" 
d="M133 1290h-207q9 128 68 194t151 66q59 0 202 -36q109 -27 142 -27q51 0 62 61h203q-7 -126 -65.5 -193t-156.5 -67q-66 0 -211 39q-94 25 -122 25q-55 0 -66 -62z" />
    <glyph glyph-name="macron" unicode="&#x2c9;" horiz-adv-x="682" 
d="M-37 1305v229h756v-229h-756z" />
    <glyph glyph-name="breve" unicode="&#x2d8;" horiz-adv-x="682" 
d="M664 1602h73q-39 -152 -141.5 -233t-255.5 -81q-315 0 -393 314h69q30 -70 98.5 -97.5t225.5 -27.5q162 0 225 25.5t99 99.5z" />
    <glyph glyph-name="dotaccent" unicode="&#x2d9;" horiz-adv-x="682" 
d="M342 1272q-58 0 -98.5 40.5t-40.5 98.5t40.5 98.5t98.5 40.5t98.5 -40.5t40.5 -98.5t-40.5 -98.5t-98.5 -40.5z" />
    <glyph glyph-name="ring" unicode="&#x2da;" horiz-adv-x="682" 
d="M131 1491q0 87 61.5 148t149.5 61q87 0 148 -61t61 -148q0 -88 -61 -149.5t-148 -61.5t-149 62t-62 149zM436 1491q0 39 -28 66.5t-68 27.5t-67 -27t-27 -67t27 -68t67 -28t68 28t28 68z" />
    <glyph glyph-name="cedilla" unicode="&#xb8;" horiz-adv-x="682" 
d="M193 -53q86 35 206 35q132 0 205.5 -40t73.5 -110q0 -170 -369 -170q-174 0 -303 37q11 35 19 78q59 -10 104 -10q139 0 139 67q0 57 -112 57z" />
    <glyph glyph-name="hungarumlaut" unicode="&#x2dd;" horiz-adv-x="682" 
d="M459 1282l137 268h412l-342 -268h-207zM-29 1282l138 268h411l-342 -268h-207z" />
    <glyph glyph-name="ogonek" unicode="&#x2db;" horiz-adv-x="682" 
d="M143 23h238q-29 -77 -29 -127q0 -66 51.5 -102t145.5 -36q67 0 178 23v-139q-172 -39 -295 -39q-165 0 -260.5 56t-95.5 151q0 79 67 213z" />
    <glyph glyph-name="caron" unicode="&#x2c7;" horiz-adv-x="682" 
d="M508 1550h221l-188 -264h-398l-190 264h240l169 -120z" />
    <glyph glyph-name="Scaron" unicode="&#x160;" horiz-adv-x="1493" 
d="M1430 1448l-168 -481q-165 223 -379 223q-119 0 -119 -90q0 -28 37.5 -57t196.5 -91q175 -69 269.5 -125.5t141.5 -144.5t47 -205q0 -245 -186 -373.5t-547 -128.5q-405 0 -698 115l165 510q72 -112 178.5 -178t204.5 -66q48 0 80.5 25t32.5 61q0 34 -31.5 65t-166.5 86
q-122 49 -202 95.5t-139 132.5t-59 217q0 254 185 383t546 129q330 0 611 -102zM913 1886h221l-188 -264h-398l-190 264h240l169 -120z" />
    <glyph glyph-name="scaron" unicode="&#x161;" horiz-adv-x="1260" 
d="M12 117l138 338q64 -86 154 -134.5t177 -48.5q54 0 86.5 24t32.5 62q0 37 -27.5 64.5t-145.5 61.5q-119 34 -195 74.5t-126.5 119.5t-50.5 172q0 180 154.5 279.5t433.5 99.5q314 0 537 -103l-148 -307q-146 131 -282 131q-45 0 -73 -20t-28 -51q0 -37 28.5 -64
t151.5 -58q125 -31 206.5 -71t130 -120t48.5 -183q0 -186 -150.5 -293.5t-389.5 -107.5q-324 0 -662 135zM797 1550h221l-188 -264h-398l-190 264h240l169 -120z" />
    <glyph glyph-name="brokenbar" unicode="&#xa6;" horiz-adv-x="1366" 
d="M518 1526h328v-742h-328v742zM518 561h328v-739h-328v739z" />
    <glyph glyph-name="Eth" unicode="&#xd0;" horiz-adv-x="1812" 
d="M152 1526h751q406 0 627 -224.5t221 -541.5q0 -202 -100.5 -381.5t-294.5 -279t-469 -99.5h-735v618h-213v287h213v621zM827 942v-358h17q122 0 176.5 42.5t54.5 139.5q0 176 -205 176h-43z" />
    <glyph glyph-name="eth" unicode="&#xf0;" horiz-adv-x="1483" 
d="M350 1382l275 103q-95 107 -254 186v17h444q75 -43 125 -82l219 82l41 -115l-160 -62q183 -195 271 -403.5t88 -458.5q0 -325 -182 -499.5t-469 -174.5q-311 0 -487.5 180t-176.5 457q0 281 161.5 445t405.5 164q113 0 172 -25q-40 84 -114 186l-320 -122zM877 623
q0 55 -40.5 95t-95.5 40t-95 -40t-40 -95q0 -56 40 -96t95 -40t95.5 40.5t40.5 95.5z" />
    <glyph glyph-name="Yacute" unicode="&#xdd;" horiz-adv-x="1855" 
d="M1266 0h-676v666l-582 860h684l236 -346l235 346h684l-581 -860v-666zM739 1618l137 268h411l-342 -268h-206z" />
    <glyph glyph-name="yacute" unicode="&#xfd;" horiz-adv-x="1516" 
d="M856 -338h-672l248 586l-424 956h615l145 -321l139 321h600zM569 1282l137 268h411l-342 -268h-206z" />
    <glyph glyph-name="Thorn" unicode="&#xde;" horiz-adv-x="1706" 
d="M154 1526h675v-254h250q293 0 450 -148.5t157 -367.5q0 -213 -149.5 -363.5t-358.5 -150.5q-175 0 -349 133v-375h-675v1526zM829 942v-332q30 -8 56 -8q76 0 123 48t47 126q0 77 -40 121.5t-114 44.5h-72z" />
    <glyph glyph-name="thorn" unicode="&#xfe;" horiz-adv-x="1642" 
d="M739 1516v-404q139 102 297 102q226 0 377.5 -169t151.5 -424q0 -275 -162.5 -453t-413.5 -178q-126 0 -250 53v-381h-618v1854h618zM739 674v-217q54 -29 107 -29q55 0 90 42t35 110q0 67 -35 109t-90 42q-62 0 -107 -57z" />
    <glyph glyph-name="multiply" unicode="&#xd7;" horiz-adv-x="1366" 
d="M123 1020l229 229l330 -329l330 329l229 -229l-330 -330l330 -330l-229 -229l-330 330l-330 -330l-229 229l330 330z" />
    <glyph glyph-name="onesuperior" unicode="&#xb9;" horiz-adv-x="1044" 
d="M727 745h-408v703l408 102v-805z" />
    <glyph glyph-name="twosuperior" unicode="&#xb2;" horiz-adv-x="1044" 
d="M881 887v-142h-736q188 206 241.5 280.5t53.5 127.5q0 34 -26 57t-66 23q-52 0 -97 -36t-104 -105l9 360q158 98 317 98q172 0 277.5 -89t105.5 -234q0 -91 -36 -165.5t-113 -174.5h174z" />
    <glyph glyph-name="threesuperior" unicode="&#xb3;" horiz-adv-x="1044" 
d="M203 1538h323q369 0 369 -207q0 -64 -37.5 -105t-118.5 -71v-4q164 -49 164 -190q0 -216 -350 -216h-350v275q81 -82 186 -82q51 0 80 20t29 54q0 44 -37.5 70t-102.5 26q-63 0 -155 -29v140q93 -15 133 -15q72 0 112.5 23.5t40.5 64.5q0 35 -30 56.5t-80 21.5
q-101 0 -176 -84v252z" />
    <glyph glyph-name="onehalf" unicode="&#xbd;" horiz-adv-x="2198" 
d="M727 745h-408v703l408 102v-805zM2032 142v-142h-736q188 206 241.5 280.5t53.5 127.5q0 34 -26 57t-66 23q-52 0 -97 -36t-104 -105l9 360q158 98 317 98q172 0 277.5 -89t105.5 -234q0 -91 -36 -165.5t-113 -174.5h174zM596 -25l791 1575h227l-790 -1575h-228z" />
    <glyph glyph-name="onequarter" unicode="&#xbc;" horiz-adv-x="2198" 
d="M590 -25l790 1575h228l-791 -1575h-227zM727 745h-408v703l408 102v-805zM1982 0h-407v266h-365v170l365 357h407v-344h152v-183h-152v-266zM1575 449v192l-193 -192h193z" />
    <glyph glyph-name="threequarters" unicode="&#xbe;" horiz-adv-x="2198" 
d="M590 -25l790 1575h228l-791 -1575h-227zM203 1538h323q369 0 369 -207q0 -64 -37.5 -105t-118.5 -71v-4q164 -49 164 -190q0 -216 -350 -216h-350v275q81 -82 186 -82q51 0 80 20t29 54q0 44 -37.5 70t-102.5 26q-63 0 -155 -29v140q93 -15 133 -15q72 0 112.5 23.5
t40.5 64.5q0 35 -30 56.5t-80 21.5q-101 0 -176 -84v252zM1982 0h-407v266h-365v170l365 357h407v-344h152v-183h-152v-266zM1575 449v192l-193 -192h193z" />
    <glyph glyph-name="sfthyphen" unicode="&#xad;" horiz-adv-x="854" 
d="M74 410v385h704v-385h-704z" />
    <glyph glyph-name="overscore" unicode="&#xaf;" horiz-adv-x="1024" 
d="M-12 1784h1048v-103h-1048v103z" />
    </font>
</defs>
</svg>
